<?xml version="1.0" encoding="UTF-8" standalone="no"?>
<!-- Created with Inkscape (http://www.inkscape.org/) -->

<svg
   xmlns:dc="http://purl.org/dc/elements/1.1/"
   xmlns:cc="http://creativecommons.org/ns#"
   xmlns:rdf="http://www.w3.org/1999/02/22-rdf-syntax-ns#"
   xmlns:svg="http://www.w3.org/2000/svg"
   xmlns="http://www.w3.org/2000/svg"
   xmlns:sodipodi="http://sodipodi.sourceforge.net/DTD/sodipodi-0.dtd"
   xmlns:inkscape="http://www.inkscape.org/namespaces/inkscape"
   version="1.1"
   id="svg2"
   xml:space="preserve"
   width="1055.3693"
   height="817.87061"
   viewBox="0 0 1055.3693 817.87061"
   sodipodi:docname="stori_sum.svg"
   inkscape:version="0.92.2 2405546, 2018-03-11"><metadata
     id="metadata8"><rdf:RDF><cc:Work
         rdf:about=""><dc:format>image/svg+xml</dc:format><dc:type
           rdf:resource="http://purl.org/dc/dcmitype/StillImage" /><dc:title></dc:title></cc:Work></rdf:RDF></metadata><defs
     id="defs6" /><sodipodi:namedview
     pagecolor="#ffffff"
     bordercolor="#666666"
     borderopacity="1"
     objecttolerance="10"
     gridtolerance="10"
     guidetolerance="10"
     inkscape:pageopacity="0"
     inkscape:pageshadow="2"
     inkscape:window-width="856"
     inkscape:window-height="480"
     id="namedview4"
     showgrid="false"
     inkscape:zoom="0.27289027"
     inkscape:cx="527.68463"
     inkscape:cy="408.9353"
     inkscape:window-x="0"
     inkscape:window-y="0"
     inkscape:window-maximized="0"
     inkscape:current-layer="g10" /><g
     id="g10"
     inkscape:groupmode="layer"
     inkscape:label="stori_sum"
     transform="matrix(1.3333333,0,0,1.3333333,0,2.5113432e-5)"><g
       id="g12"><g
         id="g14"><path
           d="m 211.418,4.371 c -13.891,-2.715 -27.953,-2.84 -42.566,-1.07 -14.61,1.773 -29.762,5.441 -43.293,10.441 -13.524,4.996 -25.43,11.324 -34.567,19.606 -9.14,8.293 -15.515,18.539 -18.156,29.105 -2.648,10.563 -1.566,21.445 3.121,31.375 4.691,9.938 12.984,18.922 22.434,25.25 9.433,6.328 20.015,9.988 31.918,12.27 11.91,2.273 25.132,3.16 38.242,1.964 13.101,-1.203 26.09,-4.496 37.273,-8.542 11.188,-4.055 20.567,-8.86 28.383,-12.153 7.813,-3.285 14.063,-5.058 20.981,-4.488 6.914,0.57 14.492,3.484 24.164,7.598 9.683,4.105 21.472,9.418 34.937,12.964 13.469,3.543 28.613,5.313 44.129,4.497 15.512,-0.829 31.383,-4.239 44.25,-10.758 12.867,-6.52 22.723,-16.133 27.961,-25.684 5.223,-9.555 5.828,-19.051 5.348,-27.082 -0.481,-8.031 -2.043,-14.617 -7.094,-22.082 C 423.836,40.117 415.297,31.77 405.141,25.066 394.973,18.355 383.188,13.297 371.707,9.879 360.223,6.461 349.039,4.688 337.02,3.492 324.996,2.289 312.125,1.656 297.934,4.121 283.746,6.586 268.23,12.16 253.625,12.285 239.02,12.41 225.309,7.098 211.418,4.371 Z"
           style="fill:#f2bd8a;fill-opacity:1;fill-rule:evenodd;stroke:#eb811b;stroke-width:3.68490291;stroke-linecap:butt;stroke-linejoin:round;stroke-miterlimit:10;stroke-dasharray:none;stroke-opacity:1"
           id="path16"
           inkscape:connector-curvature="0" /></g><path
         d="m 141.117,62.652 c 0,0 0,0 0.848,-0.496 0.847,-0.488 2.555,-1.468 5.433,-2.812 2.887,-1.344 6.95,-3.051 10.676,-4.395 3.727,-1.336 7.11,-2.308 10.586,-3.078 3.477,-0.766 7.028,-1.328 10.457,-1.683 3.422,-0.36 6.715,-0.516 9.961,-0.508 3.25,0.008 6.457,0.168 8.832,0.375 2.387,0.199 3.942,0.445 5.832,0.879 1.895,0.437 4.113,1.07 5.227,1.382 1.109,0.317 1.109,0.317 1.109,0.317 0,0 0,0 -1.219,0.621 -1.218,0.621 -3.652,1.859 -7.683,3.344 -4.035,1.492 -9.676,3.226 -15.043,4.472 -5.375,1.25 -10.488,2.008 -15.153,2.465 -4.671,0.461 -8.898,0.606 -12.23,0.637 -3.336,0.023 -5.766,-0.082 -8.559,-0.356 -2.781,-0.273 -5.929,-0.722 -7.507,-0.945 -1.567,-0.219 -1.567,-0.219 -1.567,-0.219 z"
         style="fill:#ffffff;fill-opacity:1;fill-rule:evenodd;stroke:none"
         id="path18"
         inkscape:connector-curvature="0" /><g
         id="g20"><path
           d="m 131.191,59.402 c 0,0 0,0 1.536,0.598 1.527,0.598 4.582,1.793 8.421,2.66 3.848,0.863 8.473,1.387 13.778,1.57 5.297,0.184 11.273,0.04 17.109,-0.523 5.832,-0.562 11.524,-1.535 16.82,-2.852 5.309,-1.304 10.211,-2.953 14.059,-4.562 3.844,-1.609 6.613,-3.18 8.645,-4.68 2.027,-1.496 3.312,-2.914 3.949,-3.633 0.637,-0.707 0.637,-0.707 0.637,-0.707"
           style="fill:none;stroke:#eb811b;stroke-width:3.68490291;stroke-linecap:round;stroke-linejoin:round;stroke-miterlimit:10;stroke-dasharray:none;stroke-opacity:1"
           id="path22"
           inkscape:connector-curvature="0" /></g><g
         id="g24"><path
           d="m 141.184,62.664 c 0,0 0,0 1.183,-0.73 1.176,-0.731 3.543,-2.192 7.106,-3.825 3.562,-1.629 8.336,-3.425 12.922,-4.812 4.585,-1.379 8.996,-2.356 13.625,-2.953 4.621,-0.598 9.464,-0.828 13.558,-0.828 4.09,0 7.438,0.23 10.813,0.718 3.394,0.493 6.832,1.254 8.543,1.637 1.714,0.387 1.714,0.387 1.714,0.387"
           style="fill:none;stroke:#eb811b;stroke-width:3.68490291;stroke-linecap:butt;stroke-linejoin:round;stroke-miterlimit:10;stroke-dasharray:none;stroke-opacity:1"
           id="path26"
           inkscape:connector-curvature="0" /></g><path
         d="m 297.504,52.16 c 0,0 0,0 1.754,-0.34 1.762,-0.332 5.285,-1.011 8.894,-1.445 3.618,-0.445 7.325,-0.652 11.164,-0.629 3.848,0.024 7.829,0.274 11.493,0.707 3.664,0.438 7.007,1.067 10.296,1.879 3.293,0.805 6.524,1.801 9.422,2.824 2.914,1.02 5.496,2.071 7.934,3.36 2.43,1.293 4.723,2.836 5.855,3.605 1.153,0.774 1.153,0.774 1.153,0.774 0,0 0,0 -1.516,0.191 -1.519,0.191 -4.555,0.578 -7.312,0.812 -2.75,0.239 -5.223,0.317 -8.364,0.29 -3.129,-0.032 -6.925,-0.172 -10.863,-0.516 -3.953,-0.34 -8.047,-0.887 -11.797,-1.559 -3.758,-0.672 -7.156,-1.468 -10.117,-2.281 -2.953,-0.812 -5.457,-1.641 -8.383,-2.918 -2.929,-1.285 -6.273,-3.019 -7.941,-3.883 -1.672,-0.871 -1.672,-0.871 -1.672,-0.871 z"
         style="fill:#ffffff;fill-opacity:1;fill-rule:evenodd;stroke:none"
         id="path28"
         inkscape:connector-curvature="0" /><g
         id="g30"><path
           d="m 376.543,59.402 c 0,0 0,0 -1.531,0.598 -1.532,0.598 -4.59,1.793 -8.434,2.66 -3.848,0.863 -8.473,1.387 -13.769,1.57 -5.301,0.184 -11.282,0.04 -17.11,-0.523 -5.84,-0.562 -11.527,-1.535 -16.828,-2.852 -5.305,-1.304 -10.211,-2.953 -14.059,-4.562 -3.835,-1.609 -6.613,-3.18 -8.64,-4.68 -2.031,-1.496 -3.305,-2.914 -3.949,-3.633 -0.641,-0.707 -0.641,-0.707 -0.641,-0.707"
           style="fill:none;stroke:#eb811b;stroke-width:3.68490291;stroke-linecap:round;stroke-linejoin:round;stroke-miterlimit:10;stroke-dasharray:none;stroke-opacity:1"
           id="path32"
           inkscape:connector-curvature="0" /></g><g
         id="g34"><path
           d="m 366.551,62.664 c 0,0 0,0 -1.192,-0.73 -1.175,-0.731 -3.543,-2.192 -7.101,-3.825 -3.567,-1.629 -8.328,-3.425 -12.918,-4.812 -4.586,-1.379 -9,-2.356 -13.625,-2.953 -4.621,-0.598 -9.465,-0.828 -13.555,-0.828 -4.094,0 -7.437,0.23 -10.824,0.718 -3.395,0.493 -6.82,1.254 -8.539,1.637 -1.719,0.387 -1.719,0.387 -1.719,0.387"
           style="fill:none;stroke:#eb811b;stroke-width:3.68490291;stroke-linecap:butt;stroke-linejoin:round;stroke-miterlimit:10;stroke-dasharray:none;stroke-opacity:1"
           id="path36"
           inkscape:connector-curvature="0" /></g><g
         id="g38"><path
           d="m 707.137,66.836 c 0,36.082 -44.789,65.336 -100.035,65.336 -55.25,0 -100.036,-29.254 -100.036,-65.336 0,-36.086 44.786,-65.336 100.036,-65.336 55.246,0 100.035,29.25 100.035,65.336 z"
           style="fill:#f2bd8a;fill-opacity:1;fill-rule:nonzero;stroke:#eb811b;stroke-width:3;stroke-linecap:butt;stroke-linejoin:miter;stroke-miterlimit:4;stroke-dasharray:none;stroke-opacity:1"
           id="path40"
           inkscape:connector-curvature="0" /></g><path
         d="m 573.301,66.363 c 0,0 0,0 1.691,-0.582 1.696,-0.574 5.09,-1.738 8.61,-2.668 3.515,-0.945 7.164,-1.668 10.964,-2.179 3.813,-0.512 7.789,-0.817 11.485,-0.899 3.679,-0.074 7.086,0.082 10.457,0.43 3.371,0.336 6.707,0.875 9.719,1.484 3.031,0.606 5.734,1.285 8.324,2.223 2.59,0.941 5.07,2.152 6.301,2.754 1.246,0.605 1.246,0.605 1.246,0.605 0,0 0,0 -1.473,0.403 -1.48,0.402 -4.426,1.207 -7.125,1.82 -2.691,0.621 -5.133,1.043 -8.242,1.453 -3.106,0.402 -6.883,0.793 -10.832,1 -3.961,0.215 -8.094,0.242 -11.903,0.098 -3.808,-0.141 -7.293,-0.457 -10.335,-0.852 -3.04,-0.391 -5.629,-0.863 -8.708,-1.723 -3.078,-0.863 -6.628,-2.117 -8.402,-2.738 -1.777,-0.629 -1.777,-0.629 -1.777,-0.629 z"
         style="fill:#ffffff;fill-opacity:1;fill-rule:evenodd;stroke:none"
         id="path42"
         inkscape:connector-curvature="0" /><g
         id="g44"><path
           d="m 652.578,62.535 c 0,0 0,0 -1.437,0.805 -1.422,0.805 -4.289,2.414 -7.977,3.808 -3.687,1.387 -8.191,2.551 -13.41,3.469 -5.234,0.922 -11.168,1.61 -17.027,1.863 -5.852,0.254 -11.625,0.086 -17.055,-0.48 -5.43,-0.555 -10.527,-1.504 -14.555,-2.562 -4.023,-1.059 -6.996,-2.227 -9.215,-3.43 -2.214,-1.203 -3.675,-2.426 -4.41,-3.051 -0.734,-0.609 -0.734,-0.609 -0.734,-0.609"
           style="fill:none;stroke:#eb811b;stroke-width:3.68490291;stroke-linecap:round;stroke-linejoin:round;stroke-miterlimit:10;stroke-dasharray:none;stroke-opacity:1"
           id="path46"
           inkscape:connector-curvature="0" /></g><g
         id="g48"><path
           d="m 643.137,67.156 c 0,0 0,0 -1.278,-0.558 -1.265,-0.563 -3.812,-1.68 -7.566,-2.801 -3.754,-1.117 -8.727,-2.235 -13.461,-2.965 -4.734,-0.73 -9.242,-1.082 -13.906,-1.031 -4.656,0.054 -9.492,0.5 -13.539,1.066 -4.047,0.571 -7.332,1.266 -10.617,2.219 -3.293,0.961 -6.582,2.191 -8.227,2.809 -1.652,0.625 -1.652,0.625 -1.652,0.625"
           style="fill:none;stroke:#eb811b;stroke-width:3.68490291;stroke-linecap:butt;stroke-linejoin:round;stroke-miterlimit:10;stroke-dasharray:none;stroke-opacity:1"
           id="path50"
           inkscape:connector-curvature="0" /></g><path
         d="m 408.441,91.922 c 2.789,7.66 -5.195,17.605 -17.839,22.207 -12.641,4.601 -25.153,2.121 -27.942,-5.543 -2.789,-7.664 5.195,-17.606 17.844,-22.207 12.641,-4.602 25.148,-2.121 27.937,5.543 z"
         style="fill:#fcf2e8;fill-opacity:0.43243199;fill-rule:nonzero;stroke:none"
         id="path52"
         inkscape:connector-curvature="0" /><g
         id="g54"
         transform="matrix(1,-0.36397,0.36397,1,0,0)"><path
           d="m 331.123,212.441 c 0.001,7.66 -10.253,13.874 -22.89,13.875 -12.644,0 -22.899,-6.213 -22.895,-13.876 10e-4,-7.663 10.25,-13.875 22.89,-13.875 12.648,0.002 22.896,6.212 22.895,13.876 z"
           style="fill:none;stroke:#eb811b;stroke-width:2.81907797;stroke-linecap:butt;stroke-linejoin:miter;stroke-miterlimit:4;stroke-dasharray:8.457234, 2.819078;stroke-dashoffset:0;stroke-opacity:1"
           id="path56"
           inkscape:connector-curvature="0" /></g><path
         d="m 593.75,108.586 c -2.789,7.664 -15.301,10.144 -27.945,5.543 -12.645,-4.602 -20.633,-14.547 -17.844,-22.207 2.789,-7.664 15.301,-10.145 27.941,-5.543 12.645,4.601 20.637,14.543 17.848,22.207 z"
         style="fill:#fcf2e8;fill-opacity:0.43243199;fill-rule:nonzero;stroke:none"
         id="path58"
         inkscape:connector-curvature="0" /><g
         id="g60"
         transform="matrix(1,0.36397,-0.36397,1,0,0)"><path
           d="m 559.193,-94.944 c 10e-4,7.664 -10.254,13.877 -22.895,13.876 -12.644,0.001 -22.897,-6.212 -22.897,-13.873 0.003,-7.665 10.254,-13.877 22.899,-13.877 12.641,0.001 22.89,6.212 22.893,13.874 z"
           style="fill:none;stroke:#eb811b;stroke-width:2.81907797;stroke-linecap:butt;stroke-linejoin:miter;stroke-miterlimit:4;stroke-dasharray:8.457234, 2.819078;stroke-dashoffset:0;stroke-opacity:1"
           id="path62"
           inkscape:connector-curvature="0" /></g><g
         id="g64"><path
           d="m 237.656,242.898 c -55.246,0 -100.031,29.25 -100.031,65.336 0,36.082 44.785,65.336 100.031,65.336 29.446,0 55.922,-8.312 74.227,-21.539 18.32,13.446 45.012,21.914 74.734,21.914 29.449,0 55.922,-8.312 74.227,-21.539 18.32,13.446 45.011,21.914 74.734,21.914 55.246,0 100.035,-29.254 100.035,-65.336 0,-36.086 -44.789,-65.336 -100.035,-65.336 -29.445,0 -55.922,8.309 -74.226,21.536 -18.321,-13.442 -45.012,-21.911 -74.735,-21.911 -29.445,0 -55.918,8.313 -74.222,21.536 -18.325,-13.442 -45.016,-21.911 -74.739,-21.911 z"
           style="fill:#f2bd8a;fill-opacity:1;fill-rule:nonzero;stroke:#eb811b;stroke-width:3;stroke-linecap:butt;stroke-linejoin:miter;stroke-miterlimit:4;stroke-dasharray:none;stroke-opacity:1"
           id="path66"
           inkscape:connector-curvature="0" /></g><path
         d="m 203.855,307.762 c 0,0 0,0 1.692,-0.582 1.699,-0.575 5.09,-1.739 8.609,-2.668 3.516,-0.946 7.164,-1.668 10.969,-2.18 3.809,-0.512 7.789,-0.816 11.48,-0.898 3.684,-0.075 7.086,0.082 10.457,0.429 3.372,0.336 6.708,0.875 9.723,1.485 3.027,0.605 5.731,1.285 8.32,2.222 2.59,0.942 5.071,2.153 6.305,2.754 1.242,0.606 1.242,0.606 1.242,0.606 0,0 0,0 -1.472,0.402 -1.477,0.402 -4.426,1.207 -7.125,1.82 -2.688,0.621 -5.133,1.043 -8.243,1.453 -3.101,0.403 -6.882,0.793 -10.832,1 -3.96,0.215 -8.093,0.243 -11.898,0.098 -3.812,-0.141 -7.293,-0.457 -10.336,-0.851 -3.039,-0.391 -5.633,-0.864 -8.707,-1.723 -3.078,-0.863 -6.633,-2.117 -8.406,-2.738 -1.778,-0.629 -1.778,-0.629 -1.778,-0.629 z"
         style="fill:#ffffff;fill-opacity:1;fill-rule:evenodd;stroke:none"
         id="path68"
         inkscape:connector-curvature="0" /><g
         id="g70"><path
           d="m 283.133,303.934 c 0,0 0,0 -1.434,0.804 -1.426,0.805 -4.293,2.414 -7.98,3.809 -3.684,1.387 -8.192,2.551 -13.41,3.469 -5.231,0.922 -11.168,1.609 -17.024,1.863 -5.855,0.254 -11.629,0.086 -17.058,-0.481 -5.43,-0.554 -10.524,-1.503 -14.555,-2.562 -4.024,-1.059 -6.996,-2.227 -9.211,-3.43 -2.215,-1.203 -3.68,-2.426 -4.414,-3.051 -0.735,-0.609 -0.735,-0.609 -0.735,-0.609"
           style="fill:none;stroke:#eb811b;stroke-width:3.68490291;stroke-linecap:round;stroke-linejoin:round;stroke-miterlimit:10;stroke-dasharray:none;stroke-opacity:1"
           id="path72"
           inkscape:connector-curvature="0" /></g><g
         id="g74"><path
           d="m 273.691,308.555 c 0,0 0,0 -1.273,-0.559 -1.27,-0.562 -3.816,-1.68 -7.57,-2.801 -3.754,-1.117 -8.723,-2.234 -13.461,-2.965 -4.735,-0.73 -9.242,-1.082 -13.907,-1.031 -4.656,0.055 -9.488,0.5 -13.539,1.067 -4.046,0.57 -7.332,1.265 -10.617,2.218 -3.289,0.961 -6.578,2.192 -8.226,2.809 -1.649,0.625 -1.649,0.625 -1.649,0.625"
           style="fill:none;stroke:#eb811b;stroke-width:3.68490291;stroke-linecap:butt;stroke-linejoin:round;stroke-miterlimit:10;stroke-dasharray:none;stroke-opacity:1"
           id="path76"
           inkscape:connector-curvature="0" /></g><path
         d="m 501.777,308.512 c 0,0 0,0 1.692,-0.582 1.699,-0.575 5.09,-1.739 8.609,-2.668 3.516,-0.946 7.164,-1.668 10.969,-2.18 3.808,-0.512 7.789,-0.816 11.48,-0.898 3.684,-0.075 7.086,0.082 10.457,0.429 3.371,0.336 6.707,0.875 9.723,1.485 3.027,0.605 5.731,1.285 8.32,2.222 2.59,0.942 5.071,2.153 6.305,2.754 1.242,0.606 1.242,0.606 1.242,0.606 0,0 0,0 -1.472,0.402 -1.477,0.402 -4.426,1.207 -7.125,1.82 -2.688,0.621 -5.133,1.043 -8.243,1.453 -3.101,0.403 -6.882,0.793 -10.832,1 -3.961,0.215 -8.093,0.243 -11.898,0.098 -3.813,-0.141 -7.293,-0.457 -10.336,-0.851 -3.039,-0.391 -5.633,-0.864 -8.707,-1.723 -3.078,-0.863 -6.633,-2.117 -8.406,-2.738 -1.778,-0.629 -1.778,-0.629 -1.778,-0.629 z"
         style="fill:#ffffff;fill-opacity:1;fill-rule:evenodd;stroke:none"
         id="path78"
         inkscape:connector-curvature="0" /><g
         id="g80"><path
           d="m 581.055,304.684 c 0,0 0,0 -1.434,0.804 -1.426,0.805 -4.293,2.414 -7.98,3.809 -3.684,1.387 -8.192,2.551 -13.411,3.469 -5.23,0.922 -11.168,1.609 -17.023,1.863 -5.855,0.254 -11.629,0.086 -17.059,-0.481 -5.429,-0.554 -10.523,-1.503 -14.554,-2.562 -4.024,-1.059 -6.996,-2.227 -9.211,-3.43 -2.215,-1.203 -3.68,-2.426 -4.414,-3.051 -0.735,-0.609 -0.735,-0.609 -0.735,-0.609"
           style="fill:none;stroke:#eb811b;stroke-width:3.68490291;stroke-linecap:round;stroke-linejoin:round;stroke-miterlimit:10;stroke-dasharray:none;stroke-opacity:1"
           id="path82"
           inkscape:connector-curvature="0" /></g><g
         id="g84"><path
           d="m 571.613,309.305 c 0,0 0,0 -1.273,-0.559 -1.27,-0.562 -3.817,-1.68 -7.57,-2.801 -3.754,-1.117 -8.723,-2.234 -13.461,-2.965 -4.735,-0.73 -9.243,-1.082 -13.907,-1.031 -4.656,0.055 -9.488,0.5 -13.539,1.067 -4.047,0.57 -7.332,1.265 -10.617,2.218 -3.289,0.961 -6.578,2.192 -8.226,2.809 -1.649,0.625 -1.649,0.625 -1.649,0.625"
           style="fill:none;stroke:#eb811b;stroke-width:3.68490291;stroke-linecap:butt;stroke-linejoin:round;stroke-miterlimit:10;stroke-dasharray:none;stroke-opacity:1"
           id="path86"
           inkscape:connector-curvature="0" /></g><path
         d="m 352.816,308.137 c 0,0 0,0 1.692,-0.582 1.699,-0.575 5.09,-1.739 8.609,-2.668 3.516,-0.946 7.164,-1.668 10.969,-2.18 3.809,-0.512 7.789,-0.816 11.48,-0.898 3.684,-0.075 7.086,0.082 10.457,0.429 3.372,0.336 6.707,0.875 9.723,1.485 3.027,0.605 5.731,1.285 8.32,2.222 2.59,0.942 5.071,2.153 6.305,2.754 1.242,0.606 1.242,0.606 1.242,0.606 0,0 0,0 -1.472,0.402 -1.477,0.402 -4.426,1.207 -7.125,1.82 -2.688,0.621 -5.133,1.043 -8.243,1.453 -3.101,0.403 -6.882,0.793 -10.832,1 -3.961,0.215 -8.093,0.243 -11.898,0.098 -3.813,-0.14 -7.293,-0.457 -10.336,-0.851 -3.039,-0.391 -5.633,-0.864 -8.707,-1.723 -3.078,-0.863 -6.633,-2.117 -8.406,-2.738 -1.778,-0.629 -1.778,-0.629 -1.778,-0.629 z"
         style="fill:#ffffff;fill-opacity:1;fill-rule:evenodd;stroke:none"
         id="path88"
         inkscape:connector-curvature="0" /><g
         id="g90"><path
           d="m 432.094,304.309 c 0,0 0,0 -1.434,0.804 -1.426,0.805 -4.293,2.414 -7.98,3.809 -3.684,1.387 -8.192,2.551 -13.41,3.469 -5.231,0.921 -11.168,1.609 -17.024,1.863 -5.855,0.254 -11.629,0.086 -17.058,-0.481 -5.43,-0.554 -10.524,-1.503 -14.555,-2.562 -4.024,-1.059 -6.996,-2.227 -9.211,-3.43 -2.215,-1.203 -3.68,-2.426 -4.414,-3.051 -0.735,-0.609 -0.735,-0.609 -0.735,-0.609"
           style="fill:none;stroke:#eb811b;stroke-width:3.68490291;stroke-linecap:round;stroke-linejoin:round;stroke-miterlimit:10;stroke-dasharray:none;stroke-opacity:1"
           id="path92"
           inkscape:connector-curvature="0" /></g><g
         id="g94"><path
           d="m 422.652,308.93 c 0,0 0,0 -1.273,-0.559 -1.27,-0.562 -3.817,-1.68 -7.57,-2.801 -3.754,-1.117 -8.723,-2.234 -13.461,-2.965 -4.735,-0.73 -9.243,-1.082 -13.907,-1.031 -4.656,0.055 -9.488,0.5 -13.539,1.067 -4.047,0.57 -7.332,1.265 -10.617,2.218 -3.289,0.961 -6.578,2.192 -8.226,2.809 -1.649,0.625 -1.649,0.625 -1.649,0.625"
           style="fill:none;stroke:#eb811b;stroke-width:3.68490291;stroke-linecap:butt;stroke-linejoin:round;stroke-miterlimit:10;stroke-dasharray:none;stroke-opacity:1"
           id="path96"
           inkscape:connector-curvature="0" /></g><g
         id="g98"><path
           d="M 101.531,480.48 C 46.285,480.48 1.5,509.73 1.5,545.816 c 0,36.082 44.785,65.336 100.031,65.336 29.446,0 55.922,-8.312 74.227,-21.539 18.32,13.446 45.012,21.914 74.734,21.914 29.449,0 55.922,-8.312 74.227,-21.539 18.32,13.446 45.011,21.914 74.734,21.914 55.246,0 100.035,-29.254 100.035,-65.336 0,-36.086 -44.789,-65.336 -100.035,-65.336 -29.445,0 -55.922,8.309 -74.226,21.536 -18.321,-13.442 -45.012,-21.911 -74.735,-21.911 -29.445,0 -55.918,8.313 -74.222,21.536 -18.325,-13.442 -45.016,-21.911 -74.739,-21.911 z"
           style="fill:#f2bd8a;fill-opacity:1;fill-rule:nonzero;stroke:#eb811b;stroke-width:3;stroke-linecap:butt;stroke-linejoin:miter;stroke-miterlimit:4;stroke-dasharray:none;stroke-opacity:1"
           id="path100"
           inkscape:connector-curvature="0" /></g><path
         d="m 67.73,545.344 c 0,0 0,0 1.692,-0.582 1.699,-0.574 5.09,-1.739 8.609,-2.668 3.516,-0.946 7.164,-1.668 10.969,-2.18 3.809,-0.512 7.789,-0.816 11.48,-0.898 3.684,-0.075 7.086,0.082 10.458,0.429 3.371,0.336 6.707,0.875 9.722,1.485 3.028,0.605 5.731,1.285 8.32,2.222 2.59,0.942 5.071,2.153 6.305,2.754 1.242,0.606 1.242,0.606 1.242,0.606 0,0 0,0 -1.472,0.402 -1.477,0.402 -4.426,1.207 -7.125,1.82 -2.688,0.621 -5.133,1.043 -8.242,1.454 -3.102,0.402 -6.883,0.792 -10.833,1 -3.96,0.214 -8.093,0.242 -11.898,0.097 -3.812,-0.14 -7.293,-0.457 -10.336,-0.851 -3.039,-0.391 -5.633,-0.864 -8.707,-1.723 -3.078,-0.863 -6.633,-2.117 -8.406,-2.738 -1.778,-0.629 -1.778,-0.629 -1.778,-0.629 z"
         style="fill:#ffffff;fill-opacity:1;fill-rule:evenodd;stroke:none"
         id="path102"
         inkscape:connector-curvature="0" /><g
         id="g104"><path
           d="m 147.008,541.516 c 0,0 0,0 -1.434,0.804 -1.426,0.805 -4.293,2.414 -7.98,3.809 -3.684,1.387 -8.192,2.551 -13.41,3.469 -5.231,0.922 -11.168,1.609 -17.024,1.863 -5.855,0.254 -11.629,0.086 -17.058,-0.481 -5.43,-0.554 -10.524,-1.503 -14.555,-2.562 -4.024,-1.059 -6.996,-2.227 -9.211,-3.43 -2.215,-1.203 -3.68,-2.426 -4.414,-3.05 -0.734,-0.61 -0.734,-0.61 -0.734,-0.61"
           style="fill:none;stroke:#eb811b;stroke-width:3.68490291;stroke-linecap:round;stroke-linejoin:round;stroke-miterlimit:10;stroke-dasharray:none;stroke-opacity:1"
           id="path106"
           inkscape:connector-curvature="0" /></g><g
         id="g108"><path
           d="m 137.566,546.137 c 0,0 0,0 -1.273,-0.559 -1.27,-0.562 -3.816,-1.68 -7.57,-2.801 -3.754,-1.117 -8.723,-2.234 -13.461,-2.965 -4.735,-0.73 -9.242,-1.082 -13.907,-1.031 -4.656,0.055 -9.488,0.5 -13.539,1.067 -4.046,0.57 -7.332,1.265 -10.617,2.218 -3.289,0.961 -6.578,2.192 -8.226,2.809 -1.649,0.625 -1.649,0.625 -1.649,0.625"
           style="fill:none;stroke:#eb811b;stroke-width:3.68490291;stroke-linecap:butt;stroke-linejoin:round;stroke-miterlimit:10;stroke-dasharray:none;stroke-opacity:1"
           id="path110"
           inkscape:connector-curvature="0" /></g><path
         d="m 365.652,546.094 c 0,0 0,0 1.692,-0.582 1.699,-0.574 5.09,-1.739 8.609,-2.668 3.516,-0.946 7.164,-1.668 10.969,-2.18 3.808,-0.512 7.789,-0.816 11.48,-0.898 3.684,-0.075 7.086,0.082 10.457,0.429 3.371,0.336 6.707,0.875 9.723,1.485 3.027,0.605 5.73,1.285 8.32,2.222 2.59,0.942 5.071,2.153 6.305,2.754 1.242,0.606 1.242,0.606 1.242,0.606 0,0 0,0 -1.472,0.402 -1.477,0.402 -4.426,1.207 -7.125,1.82 -2.688,0.621 -5.133,1.043 -8.243,1.454 -3.101,0.402 -6.882,0.792 -10.832,1 -3.961,0.214 -8.093,0.242 -11.898,0.097 -3.813,-0.14 -7.293,-0.457 -10.336,-0.851 -3.039,-0.391 -5.633,-0.864 -8.707,-1.723 -3.078,-0.863 -6.633,-2.117 -8.406,-2.738 -1.778,-0.629 -1.778,-0.629 -1.778,-0.629 z"
         style="fill:#ffffff;fill-opacity:1;fill-rule:evenodd;stroke:none"
         id="path112"
         inkscape:connector-curvature="0" /><g
         id="g114"><path
           d="m 444.93,542.266 c 0,0 0,0 -1.434,0.804 -1.426,0.805 -4.293,2.414 -7.98,3.809 -3.684,1.387 -8.192,2.551 -13.411,3.469 -5.23,0.922 -11.167,1.609 -17.023,1.863 -5.855,0.254 -11.629,0.086 -17.059,-0.481 -5.429,-0.554 -10.523,-1.503 -14.554,-2.562 -4.024,-1.059 -6.996,-2.227 -9.211,-3.43 -2.215,-1.203 -3.68,-2.426 -4.414,-3.05 -0.735,-0.61 -0.735,-0.61 -0.735,-0.61"
           style="fill:none;stroke:#eb811b;stroke-width:3.68490291;stroke-linecap:round;stroke-linejoin:round;stroke-miterlimit:10;stroke-dasharray:none;stroke-opacity:1"
           id="path116"
           inkscape:connector-curvature="0" /></g><g
         id="g118"><path
           d="m 435.488,546.887 c 0,0 0,0 -1.273,-0.559 -1.27,-0.562 -3.817,-1.68 -7.57,-2.801 -3.754,-1.117 -8.723,-2.234 -13.461,-2.965 -4.735,-0.73 -9.243,-1.082 -13.907,-1.031 -4.656,0.055 -9.488,0.5 -13.539,1.067 -4.047,0.57 -7.332,1.265 -10.617,2.218 -3.289,0.961 -6.578,2.192 -8.226,2.809 -1.649,0.625 -1.649,0.625 -1.649,0.625"
           style="fill:none;stroke:#eb811b;stroke-width:3.68490291;stroke-linecap:butt;stroke-linejoin:round;stroke-miterlimit:10;stroke-dasharray:none;stroke-opacity:1"
           id="path120"
           inkscape:connector-curvature="0" /></g><path
         d="m 216.691,545.719 c 0,0 0,0 1.692,-0.582 1.699,-0.575 5.09,-1.739 8.609,-2.668 3.516,-0.946 7.164,-1.668 10.969,-2.18 3.809,-0.512 7.789,-0.816 11.48,-0.898 3.684,-0.075 7.086,0.082 10.457,0.429 3.372,0.336 6.707,0.875 9.723,1.485 3.027,0.605 5.731,1.285 8.32,2.222 2.59,0.942 5.071,2.153 6.305,2.754 1.242,0.606 1.242,0.606 1.242,0.606 0,0 0,0 -1.472,0.402 -1.477,0.402 -4.426,1.207 -7.125,1.82 -2.688,0.621 -5.133,1.043 -8.243,1.453 -3.101,0.403 -6.882,0.793 -10.832,1 -3.961,0.215 -8.093,0.243 -11.898,0.098 -3.813,-0.14 -7.293,-0.457 -10.336,-0.851 -3.039,-0.391 -5.633,-0.864 -8.707,-1.723 -3.078,-0.863 -6.633,-2.117 -8.406,-2.738 -1.778,-0.629 -1.778,-0.629 -1.778,-0.629 z"
         style="fill:#ffffff;fill-opacity:1;fill-rule:evenodd;stroke:none"
         id="path122"
         inkscape:connector-curvature="0" /><g
         id="g124"><path
           d="m 295.969,541.891 c 0,0 0,0 -1.434,0.804 -1.426,0.805 -4.293,2.414 -7.98,3.809 -3.684,1.387 -8.192,2.551 -13.41,3.469 -5.231,0.922 -11.168,1.609 -17.024,1.863 -5.855,0.254 -11.629,0.086 -17.059,-0.481 -5.429,-0.554 -10.523,-1.503 -14.554,-2.562 -4.024,-1.059 -6.996,-2.227 -9.211,-3.43 -2.215,-1.203 -3.68,-2.425 -4.414,-3.051 -0.735,-0.609 -0.735,-0.609 -0.735,-0.609"
           style="fill:none;stroke:#eb811b;stroke-width:3.68490291;stroke-linecap:round;stroke-linejoin:round;stroke-miterlimit:10;stroke-dasharray:none;stroke-opacity:1"
           id="path126"
           inkscape:connector-curvature="0" /></g><g
         id="g128"><path
           d="m 286.527,546.512 c 0,0 0,0 -1.273,-0.559 -1.27,-0.562 -3.816,-1.68 -7.57,-2.801 -3.754,-1.117 -8.723,-2.234 -13.461,-2.964 -4.735,-0.731 -9.243,-1.083 -13.907,-1.032 -4.656,0.055 -9.488,0.5 -13.539,1.067 -4.047,0.57 -7.332,1.265 -10.617,2.218 -3.289,0.961 -6.578,2.192 -8.226,2.809 -1.649,0.625 -1.649,0.625 -1.649,0.625"
           style="fill:none;stroke:#eb811b;stroke-width:3.68490291;stroke-linecap:butt;stroke-linejoin:round;stroke-miterlimit:10;stroke-dasharray:none;stroke-opacity:1"
           id="path130"
           inkscape:connector-curvature="0" /></g><g
         id="g132"><path
           d="m 790.027,546.191 c 0,36.082 -44.789,65.336 -100.035,65.336 -55.246,0 -100.031,-29.254 -100.031,-65.336 0,-36.086 44.785,-65.336 100.031,-65.336 55.246,0 100.035,29.25 100.035,65.336 z"
           style="fill:#f2bd8a;fill-opacity:1;fill-rule:nonzero;stroke:#eb811b;stroke-width:3;stroke-linecap:butt;stroke-linejoin:miter;stroke-miterlimit:4;stroke-dasharray:none;stroke-opacity:1"
           id="path134"
           inkscape:connector-curvature="0" /></g><path
         d="m 656.191,545.719 c 0,0 0,0 1.692,-0.582 1.699,-0.575 5.09,-1.739 8.609,-2.668 3.516,-0.946 7.164,-1.668 10.969,-2.18 3.809,-0.512 7.789,-0.816 11.48,-0.898 3.684,-0.075 7.086,0.082 10.457,0.429 3.372,0.336 6.707,0.875 9.723,1.485 3.027,0.605 5.731,1.285 8.32,2.222 2.59,0.942 5.071,2.153 6.305,2.754 1.242,0.606 1.242,0.606 1.242,0.606 0,0 0,0 -1.472,0.402 -1.477,0.402 -4.426,1.207 -7.125,1.82 -2.688,0.621 -5.133,1.043 -8.243,1.453 -3.101,0.403 -6.882,0.793 -10.832,1 -3.961,0.215 -8.093,0.243 -11.898,0.098 -3.813,-0.14 -7.293,-0.457 -10.336,-0.851 -3.039,-0.391 -5.633,-0.864 -8.707,-1.723 -3.078,-0.863 -6.633,-2.117 -8.406,-2.738 -1.778,-0.629 -1.778,-0.629 -1.778,-0.629 z"
         style="fill:#ffffff;fill-opacity:1;fill-rule:evenodd;stroke:none"
         id="path136"
         inkscape:connector-curvature="0" /><g
         id="g138"><path
           d="m 735.469,541.891 c 0,0 0,0 -1.434,0.804 -1.426,0.805 -4.293,2.414 -7.98,3.809 -3.684,1.387 -8.192,2.551 -13.41,3.469 -5.231,0.922 -11.168,1.609 -17.024,1.863 -5.855,0.254 -11.629,0.086 -17.059,-0.481 -5.429,-0.554 -10.523,-1.503 -14.554,-2.562 -4.024,-1.059 -6.996,-2.227 -9.211,-3.43 -2.215,-1.203 -3.68,-2.425 -4.414,-3.051 -0.735,-0.609 -0.735,-0.609 -0.735,-0.609"
           style="fill:none;stroke:#eb811b;stroke-width:3.68490291;stroke-linecap:round;stroke-linejoin:round;stroke-miterlimit:10;stroke-dasharray:none;stroke-opacity:1"
           id="path140"
           inkscape:connector-curvature="0" /></g><g
         id="g142"><path
           d="m 726.027,546.512 c 0,0 0,0 -1.273,-0.559 -1.27,-0.562 -3.816,-1.68 -7.57,-2.801 -3.754,-1.117 -8.723,-2.234 -13.461,-2.964 -4.735,-0.731 -9.243,-1.083 -13.907,-1.032 -4.656,0.055 -9.488,0.5 -13.539,1.067 -4.047,0.57 -7.332,1.265 -10.617,2.218 -3.289,0.961 -6.578,2.192 -8.226,2.809 -1.649,0.625 -1.649,0.625 -1.649,0.625"
           style="fill:none;stroke:#eb811b;stroke-width:3.68490291;stroke-linecap:butt;stroke-linejoin:round;stroke-miterlimit:10;stroke-dasharray:none;stroke-opacity:1"
           id="path144"
           inkscape:connector-curvature="0" /></g><path
         d="m 676.641,587.941 c -2.789,7.664 -15.301,10.145 -27.946,5.543 -12.644,-4.601 -20.633,-14.546 -17.843,-22.207 2.789,-7.664 15.3,-10.144 27.945,-5.543 12.641,4.602 20.633,14.543 17.844,22.207 z"
         style="fill:#fcf2e8;fill-opacity:0.43243199;fill-rule:nonzero;stroke:none"
         id="path146"
         inkscape:connector-curvature="0" /><g
         id="g148"><path
           d="m 676.641,587.941 c -2.789,7.664 -15.301,10.145 -27.946,5.543 -12.644,-4.601 -20.633,-14.546 -17.843,-22.207 2.789,-7.664 15.3,-10.144 27.945,-5.543 12.641,4.602 20.633,14.543 17.844,22.207 z"
           style="fill:none;stroke:#eb811b;stroke-width:3;stroke-linecap:butt;stroke-linejoin:miter;stroke-miterlimit:4;stroke-dasharray:9, 3;stroke-dashoffset:0;stroke-opacity:1"
           id="path150"
           inkscape:connector-curvature="0" /></g><path
         d="m 462.367,576.246 c 1.418,8.035 -8.176,16.438 -21.429,18.774 -13.25,2.339 -25.141,-2.282 -26.555,-10.309 -1.418,-8.031 8.179,-16.438 21.429,-18.773 13.247,-2.336 25.141,2.277 26.555,10.308 z"
         style="fill:#fcf2e8;fill-opacity:0.43243199;fill-rule:nonzero;stroke:none"
         id="path152"
         inkscape:connector-curvature="0" /><g
         id="g154"><path
           d="m 462.367,576.246 c 1.418,8.035 -8.176,16.438 -21.429,18.774 -13.25,2.339 -25.141,-2.282 -26.555,-10.309 -1.418,-8.031 8.179,-16.434 21.429,-18.773 13.247,-2.336 25.141,2.277 26.555,10.308 z"
           style="fill:none;stroke:#eb811b;stroke-width:3;stroke-linecap:butt;stroke-linejoin:miter;stroke-miterlimit:4;stroke-dasharray:9, 3;stroke-dashoffset:0;stroke-opacity:1"
           id="path156"
           inkscape:connector-curvature="0" /></g><g
         id="g158"><path
           d="m 535.965,550.672 c 0,2.387 -2.25,4.32 -5.024,4.32 -2.777,0 -5.027,-1.933 -5.027,-4.32 0,-2.383 2.25,-4.317 5.027,-4.317 2.774,0 5.024,1.934 5.024,4.317 z"
           style="fill:#000000;fill-opacity:1;fill-rule:nonzero;stroke:#000000;stroke-width:0.80839097;stroke-linecap:butt;stroke-linejoin:miter;stroke-miterlimit:10;stroke-dasharray:none;stroke-opacity:1"
           id="path160"
           inkscape:connector-curvature="0" /></g><g
         id="g162"><path
           d="m 551.043,550.637 c 0,2.383 -2.25,4.316 -5.027,4.316 -2.774,0 -5.028,-1.933 -5.028,-4.316 0,-2.383 2.254,-4.317 5.028,-4.317 2.777,0 5.027,1.934 5.027,4.317 z"
           style="fill:#000000;fill-opacity:1;fill-rule:nonzero;stroke:#000000;stroke-width:0.80839097;stroke-linecap:butt;stroke-linejoin:miter;stroke-miterlimit:10;stroke-dasharray:none;stroke-opacity:1"
           id="path164"
           inkscape:connector-curvature="0" /></g><g
         id="g166"><path
           d="m 565.52,550.871 c 0,2.387 -2.25,4.317 -5.024,4.317 -2.777,0 -5.027,-1.93 -5.027,-4.317 0,-2.383 2.25,-4.316 5.027,-4.316 2.774,0 5.024,1.933 5.024,4.316 z"
           style="fill:#000000;fill-opacity:1;fill-rule:nonzero;stroke:#000000;stroke-width:0.80839097;stroke-linecap:butt;stroke-linejoin:miter;stroke-miterlimit:10;stroke-dasharray:none;stroke-opacity:1"
           id="path168"
           inkscape:connector-curvature="0" /></g><g
         id="g170"><path
           d="m 387.203,164.07 v 55.473"
           style="fill:none;stroke:#000000;stroke-width:3;stroke-linecap:butt;stroke-linejoin:miter;stroke-miterlimit:4;stroke-dasharray:none;stroke-opacity:1"
           id="path172"
           inkscape:connector-curvature="0" /></g><g
         id="g174"
         transform="rotate(90)"><path
           d="m 167.008,-387.203 c 0,1.656 -1.344,3 -3,3 -1.656,0 -3,-1.344 -3,-3 0,-1.656 1.344,-3 3,-3 1.656,0 3,1.344 3,3 z"
           style="fill:#000000;fill-opacity:1;fill-rule:evenodd;stroke:#000000;stroke-width:0.80000001;stroke-linecap:butt;stroke-linejoin:miter;stroke-miterlimit:4;stroke-dasharray:none;stroke-opacity:1"
           id="path176"
           inkscape:connector-curvature="0" /></g><g
         id="g178"
         transform="rotate(-90)"><path
           d="m -207.543,387.203 6,-6 -21,6 21,6 z"
           style="fill:#000000;fill-opacity:1;fill-rule:evenodd;stroke:#000000;stroke-width:1.60000002;stroke-linecap:butt;stroke-linejoin:miter;stroke-miterlimit:4;stroke-dasharray:none;stroke-opacity:1"
           id="path180"
           inkscape:connector-curvature="0" /></g><g
         id="g182"><path
           d="m 384.582,398.039 v 55.473"
           style="fill:none;stroke:#000000;stroke-width:3;stroke-linecap:butt;stroke-linejoin:miter;stroke-miterlimit:4;stroke-dasharray:none;stroke-opacity:1"
           id="path184"
           inkscape:connector-curvature="0" /></g><g
         id="g186"
         transform="rotate(90)"><path
           d="m 400.977,-384.582 c 0,1.656 -1.344,3 -3,3 -1.653,0 -3,-1.344 -3,-3 0,-1.656 1.347,-3 3,-3 1.656,0 3,1.344 3,3 z"
           style="fill:#000000;fill-opacity:1;fill-rule:evenodd;stroke:#000000;stroke-width:0.80000001;stroke-linecap:butt;stroke-linejoin:miter;stroke-miterlimit:4;stroke-dasharray:none;stroke-opacity:1"
           id="path188"
           inkscape:connector-curvature="0" /></g><g
         id="g190"
         transform="rotate(-90)"><path
           d="m -441.512,384.582 6,-6 -21,6 21,6 z"
           style="fill:#000000;fill-opacity:1;fill-rule:evenodd;stroke:#000000;stroke-width:1.60000002;stroke-linecap:butt;stroke-linejoin:miter;stroke-miterlimit:4;stroke-dasharray:none;stroke-opacity:1"
           id="path192"
           inkscape:connector-curvature="0" /></g></g></g></svg>